# xmcd
# 
# Track frame offsets:
#     150
#     12658
#     30963
#     62073
# 
# Disc length: 1135
# 
# Revision: 0
# Processed by: cddbd v1.5.2PL0 Copyright (c) Steve Scherf et al.
# Submitted via: BonkEnc v1.0.8
# 
DISCID=29046d04
DTITLE=Twenty 4 Seven - Single
DYEAR=1995
DGENRE=dance
TTITLE0=Are You Dreaming? (Radio Edit)
TTITLE1=Are You Dreaming? (Bruce Forest Radio Edit)
TTITLE2=Are You Dreaming? (Bruce Forest Mix)
TTITLE3=Are You Dreaming (Nightmare Mix)
EXTD=
EXTT0=
EXTT1=
EXTT2=
EXTT3=
PLAYORDER=
